<?xml version="1.0" encoding="UTF-8"?>
<!DOCTYPE svg PUBLIC "-//W3C//DTD SVG 1.1//EN" "http://www.w3.org/Graphics/SVG/1.1/DTD/svg11.dtd">
<!-- Creator: CorelDRAW 2021 (64 Bit) -->
<svg xmlns="http://www.w3.org/2000/svg" xml:space="preserve" width="451.555mm" height="225.778mm" version="1.1" style="shape-rendering:geometricPrecision; text-rendering:geometricPrecision; image-rendering:optimizeQuality; fill-rule:evenodd; clip-rule:evenodd"
viewBox="0 0 45155.52 22577.8"
 xmlns:xlink="http://www.w3.org/1999/xlink"
 xmlns:xodm="http://www.corel.com/coreldraw/odm/2003">
 <defs>
  <style type="text/css">
   <![CDATA[
    .fil0 {fill:#39750E}
    .fil1 {fill:#39750E;fill-rule:nonzero}
   ]]>
  </style>
 </defs>
 <g id="Camada_x0020_1">
  <metadata id="CorelCorpID_0Corel-Layer"/>
  <g id="_3192613324032">
   <path class="fil0" d="M28940.62 18097.49c25.42,-11.5 29.51,-15.06 38.85,-43.21 5.91,21.63 -18.73,47.78 -38.85,43.21zm57.59 -59.71c26.12,-9.92 43.25,-27.55 49.94,-54.13 3.87,28.2 -25.64,61.65 -49.94,54.13zm-135.09 -84.23c8.86,-1.66 12.86,0.24 22.85,9.86 28.74,27.64 -40.66,67.47 -68.63,37.42 -5.8,-6.24 -8.49,-17.6 -3.91,-26.32 7.9,-15.05 30.26,-17.31 49.69,-20.96zm91.82 -23.06c21.71,0 32.14,24.16 17.99,39.93 -10.41,11.61 -26.88,21.15 -49.5,16.54 -41.01,-8.35 -34.29,-56.47 31.51,-56.47zm108.63 33.37c14.26,-6.84 17.16,-7.18 26.86,-17.21 6.44,-6.67 11.59,-16.87 13.85,-27.59 4.9,22.83 -19.24,48.4 -40.71,44.8zm-68.95 -5.48c-4.52,-5.24 -12.37,-9.37 -11.64,-19.22 0.99,-13.39 29.23,-33.94 61.83,-30.51 -14.75,10.03 -1.49,36.63 -50.19,49.73zm120.56 -68.71c4.01,-8.21 8.47,-13.26 7.69,-24.88 -0.58,-8.61 -5.54,-17.31 -10.32,-20.76 -3.6,1.39 -3.36,1.79 -5.67,4.32 1.18,8.28 9.96,10.12 8.8,23.71 -0.73,8.47 -7.18,15.9 -13.36,18.1 -10.81,3.86 -38.43,-7.27 -55.15,-4.78 -26.17,3.89 -29.6,17.98 -98.31,26.84 -69.53,8.97 -71.91,29.9 -93.61,30.95 -23.95,1.17 -30.94,3.12 -48.39,14.28 -4.67,2.99 -33.48,22.41 -36.76,26.76 6.22,1.91 18.06,6.7 23.83,10.3 21.25,13.23 18.7,31.4 74.22,21.42 58.7,-10.56 60.12,4.44 102.68,-33.4 -4.13,10.79 -7.93,28.9 -13.86,37.35 -9.66,13.77 -46.2,16.54 -45.49,58.92 0.5,29.47 -8.77,27.97 -9.51,41.09 6.25,-0.55 14.34,-7.22 21.76,-9.84 18.17,-6.42 43.66,2.69 61.61,-34.98 11.69,-24.54 8.42,-20.41 33.6,-30.41 46.78,-18.57 30.19,-57.97 57.05,-72.29 16.54,-8.81 25.48,-14.17 33.43,-30.56 11.28,-23.28 -4.02,-32.15 5.76,-52.14z"/>
   <polygon class="fil1" points="28882.98,18041.29 28882.98,17916.65 28758.98,17916.65 28758.98,17864.5 28882.98,17864.5 28882.98,17740.49 28935.77,17740.49 28935.77,17864.5 29059.77,17864.5 29059.77,17916.65 28935.77,17916.65 28935.77,18041.29 "/>
  </g>
 </g>
</svg>
